<svg version="1.1" xmlns="http://www.w3.org/2000/svg">  
  <defs>  
    <symbol id="envelope" viewBox="0 0 512 512">  
      <path d="M502.3 190.8c3.9-3.1 9.7-.2 9.7 4.7V400c0 26.5-21.5 48-48 48H48c-26.5 0-48-21.5-48-48V195.6c0-5 5.7-7.8 9.7-4.7 22.4 17.4 52.1 39.5 154.1 113.6 21.1 15.4 56.7 47.8 92.2 47.6 35.7.3 72-32.8 92.3-47.6 102-74.1 131.6-96.3 154-113.7zM256 320c23.2.4 56.6-29.2 73.4-41.4 132.7-96.3 142.8-104.7 173.4-128.7 5.8-4.5 9.2-11.5 9.2-18.9v-19c0-26.5-21.5-48-48-48H48C21.5 64 0 85.5 0 112v19c0 7.4 3.4 14.3 9.2 18.9 30.6 23.9 40.7 32.4 173.4 128.7 16.8 12.2 50.2 41.8 73.4 41.4z"/>
    </symbol>  
    <symbol id="phone-alt" viewBox="0 0 512 512">
        <path d="M497.39 361.8l-112-48a24 24 0 0 0-28 6.9l-49.6 60.6A370.66 370.66 0 0 1 130.6 204.11l60.6-49.6a23.94 23.94 0 0 0 6.9-28l-48-112A24.16 24.16 0 0 0 122.6.61l-104 24A24 24 0 0 0 0 48c0 256.5 207.9 464 464 464a24 24 0 0 0 23.4-18.6l24-104a24.29 24.29 0 0 0-14.01-27.6z"/>
    </symbol>
    <symbol id="facebook-f" viewBox="0 0 320 512">
        <path d="M279.14 288l14.22-92.66h-88.91v-60.13c0-25.35 12.42-50.06 52.24-50.06h40.42V6.26S260.43 0 225.36 0c-73.22 0-121.08 44.38-121.08 124.72v70.62H22.89V288h81.39v224h100.17V288z"/>
    </symbol>
    <symbol id="twitter" viewBox="0 0 512 512">
        <path d="M459.37 151.716c.325 4.548.325 9.097.325 13.645 0 138.72-105.583 298.558-298.558 298.558-59.452 0-114.68-17.219-161.137-47.106 8.447.974 16.568 1.299 25.34 1.299 49.055 0 94.213-16.568 130.274-44.832-46.132-.975-84.792-31.188-98.112-72.772 6.498.974 12.995 1.624 19.818 1.624 9.421 0 18.843-1.3 27.614-3.573-48.081-9.747-84.143-51.98-84.143-102.985v-1.299c13.969 7.797 30.214 12.67 47.431 13.319-28.264-18.843-46.781-51.005-46.781-87.391 0-19.492 5.197-37.36 14.294-52.954 51.655 63.675 129.3 105.258 216.365 109.807-1.624-7.797-2.599-15.918-2.599-24.04 0-57.828 46.782-104.934 104.934-104.934 30.213 0 57.502 12.67 76.67 33.137 23.715-4.548 46.456-13.32 66.599-25.34-7.798 24.366-24.366 44.833-46.132 57.827 21.117-2.273 41.584-8.122 60.426-16.243-14.292 20.791-32.161 39.308-52.628 54.253z"/>
    </symbol>
    <symbol id="linkedin-in" viewBox="0 0 448 512">
        <path d="M100.28 448H7.4V148.9h92.88zM53.79 108.1C24.09 108.1 0 83.5 0 53.8a53.79 53.79 0 0 1 107.58 0c0 29.7-24.1 54.3-53.79 54.3zM447.9 448h-92.68V302.4c0-34.7-.7-79.2-48.29-79.2-48.29 0-55.69 37.7-55.69 76.7V448h-92.78V148.9h89.08v40.8h1.3c12.4-23.5 42.69-48.3 87.88-48.3 94 0 111.28 61.9 111.28 142.3V448z"/>
    </symbol>
    <symbol id="lastfm" viewBox="0 0 512 512">
        <path d="M225.8 367.1l-18.8-51s-30.5 34-76.2 34c-40.5 0-69.2-35.2-69.2-91.5 0-72.1 36.4-97.9 72.1-97.9 66.5 0 74.8 53.3 100.9 134.9 18.8 56.9 54 102.6 155.4 102.6 72.7 0 122-22.3 122-80.9 0-72.9-62.7-80.6-115-92.1-25.8-5.9-33.4-16.4-33.4-34 0-19.9 15.8-31.7 41.6-31.7 28.2 0 43.4 10.6 45.7 35.8l58.6-7c-4.7-52.8-41.1-74.5-100.9-74.5-52.8 0-104.4 19.9-104.4 83.9 0 39.9 19.4 65.1 68 76.8 44.9 10.6 79.8 13.8 79.8 45.7 0 21.7-21.1 30.5-61 30.5-59.2 0-83.9-31.1-97.9-73.9-32-96.8-43.6-163-161.3-163C45.7 113.8 0 168.3 0 261c0 89.1 45.7 137.2 127.9 137.2 66.2 0 97.9-31.1 97.9-31.1z"/>
    </symbol>
  </defs>  
</svg>