<?xml version="1.0" standalone="no"?>
<!DOCTYPE svg PUBLIC "-//W3C//DTD SVG 20010904//EN"
 "http://www.w3.org/TR/2001/REC-SVG-20010904/DTD/svg10.dtd">
<svg version="1.0" xmlns="http://www.w3.org/2000/svg"
 width="700.000000pt" height="700.000000pt" viewBox="0 0 700.000000 700.000000"
 preserveAspectRatio="xMidYMid meet">
<metadata>
Created by potrace 1.11, written by Peter Selinger 2001-2013
</metadata>
<g transform="translate(0.000000,700.000000) scale(0.100000,-0.100000)"
fill="#000000" stroke="none">
<path d="M910 4680 c-5 -10 -18 -39 -29 -66 -10 -27 -33 -80 -51 -119 -51
-112 -57 -127 -95 -215 -47 -109 -57 -133 -89 -203 -14 -32 -26 -60 -26 -62 0
-2 -13 -33 -29 -67 -51 -113 -68 -151 -131 -298 -34 -79 -72 -167 -85 -195
-13 -27 -76 -171 -140 -320 -65 -148 -125 -288 -135 -310 -31 -69 -70 -157
-70 -159 0 -1 664 2 686 3 6 1 41 80 79 176 l68 175 386 0 386 0 65 -171 c36
-94 70 -174 77 -176 23 -9 693 -8 693 1 0 7 -57 142 -110 261 -10 22 -105 238
-210 480 -106 242 -201 460 -213 485 -11 25 -34 79 -52 120 -46 107 -153 352
-225 515 -34 77 -64 145 -66 150 -3 7 -119 11 -340 11 -303 0 -336 -1 -344
-16z m350 -680 c0 -6 15 -49 34 -98 110 -280 145 -376 140 -381 -3 -3 -90 -6
-194 -7 l-188 0 23 60 c72 190 147 385 158 409 12 27 27 36 27 17z"/>
<path d="M2334 4685 c-3 -6 -3 -125 -2 -265 l3 -255 295 0 295 0 0 -743 c1
-537 4 -745 12 -750 8 -5 626 -8 665 -3 5 1 9 337 10 748 l3 748 290 0 c160 0
292 2 295 6 3 4 5 123 5 266 l-1 258 -933 0 c-626 0 -935 -3 -937 -10z"/>
<path d="M4380 3683 c0 -803 3 -1013 13 -1014 14 0 346 0 502 0 l110 1 0 441
c-1 378 1 439 13 423 8 -11 55 -86 106 -169 51 -82 144 -232 206 -332 l113
-183 151 0 151 1 20 32 c11 18 51 84 88 147 38 63 73 122 78 130 67 108 239
405 239 412 0 5 4 7 8 4 5 -3 10 -207 11 -453 1 -246 4 -449 6 -452 2 -5 566
-6 610 -2 10 1 9 2011 -1 2021 -3 2 -129 5 -280 5 l-274 0 -26 -38 c-13 -20
-34 -54 -45 -74 -32 -57 -428 -724 -455 -765 -13 -21 -24 -42 -24 -48 0 -5 -4
-10 -10 -10 -5 0 -10 -4 -10 -9 0 -8 -63 -117 -74 -128 -2 -2 -37 49 -76 114
-40 65 -102 165 -137 221 -36 57 -73 118 -83 135 -10 18 -47 79 -82 137 -35
58 -111 182 -168 275 -57 94 -107 174 -112 180 -5 6 -117 10 -288 10 l-280 0
0 -1012z"/>
</g>
</svg>
